<?xml version="1.0" encoding="utf-8"?>
<!-- Generator: Adobe Illustrator 21.1.0, SVG Export Plug-In . SVG Version: 6.00 Build 0)  -->
<svg version="1.1" id="Layer_1" xmlns="http://www.w3.org/2000/svg" xmlns:xlink="http://www.w3.org/1999/xlink" x="0px" y="0px"
	 viewBox="0 0 21 8" style="enable-background:new 0 0 21 8;" xml:space="preserve">
<path style="fill:#ffffff;" d="M15.8,7.1c0-0.3,0.1-0.5,0.3-0.7L18.8,4l-2.6-2.4c-0.4-0.4-0.4-0.9-0.1-1.3c0.4-0.4,0.9-0.4,1.3-0.1
	l3.4,3.1C20.9,3.5,21,3.7,21,4l0,0c0,0.3-0.1,0.5-0.3,0.7l-3.4,3.1c-0.4,0.4-0.9,0.3-1.3-0.1C15.9,7.5,15.8,7.3,15.8,7.1z"/>
<path style="fill:#ffffff;" d="M0.7,4c0-0.5,0.4-0.9,0.9-0.9h17.1c0.5,0,0.9,0.4,0.9,0.9s-0.4,0.9-0.9,0.9H1.6
	C1.1,4.9,0.7,4.5,0.7,4z"/>
</svg>
