<?xml version="1.0" encoding="utf-8"?>
<!-- Generator: Adobe Illustrator 21.1.0, SVG Export Plug-In . SVG Version: 6.00 Build 0)  -->
<svg version="1.1" id="Layer_1" xmlns="http://www.w3.org/2000/svg" xmlns:xlink="http://www.w3.org/1999/xlink" x="0px" y="0px"
	 viewBox="0 0 75 27" style="enable-background:new 0 0 75 27;" xml:space="preserve">
<path style="fill:#FFFFFF;" d="M59.5,23.6c0.1-0.1,0.2-0.2,0.3-0.3l9.9-9.9l-9.8-9.9C59,2.8,59,1.4,59.8,0.6c0.4-0.4,1-0.6,1.5-0.6
	s1,0.3,1.4,0.6L74.1,12c0.8,0.8,0.8,2.1,0,2.9L62.8,26.2c-0.7,0.9-2,1-2.9,0.3C59,25.8,58.8,24.5,59.5,23.6z"/>
<path style="fill:#FFFFFF;" d="M0.5,23.6c0.1-0.1,0.2-0.2,0.3-0.3l9.9-9.9L0.9,3.5C0,2.8,0,1.4,0.8,0.6C1.2,0.2,1.8,0,2.3,0
	s1,0.3,1.4,0.6L15.1,12c0.8,0.8,0.8,2.1,0,2.9L3.8,26.2c-0.7,0.9-2,1-2.9,0.3S-0.2,24.5,0.5,23.6z"/>
</svg>
