<?xml version="1.0" encoding="utf-8"?>
<!-- Generator: Adobe Illustrator 21.1.0, SVG Export Plug-In . SVG Version: 6.00 Build 0)  -->
<svg version="1.1" id="Layer_1" xmlns="http://www.w3.org/2000/svg" xmlns:xlink="http://www.w3.org/1999/xlink" x="0px" y="0px"
	 viewBox="0 0 88 88" style="enable-background:new 0 0 88 88;" xml:space="preserve">
<g transform="translate(0,-952.36218)">
	<path style="fill:#FFFFFF;" d="M44,952.4c-24.3,0-44,19.7-44,44c0,24.3,19.7,44,44,44s44-19.7,44-44C88,972.1,68.3,952.4,44,952.4z
		 M44,956.4c22.1,0,40,17.9,40,40c0,22.1-17.9,40-40,40s-40-17.9-40-40C4,974.2,21.9,956.4,44,956.4z"/>
</g>
<path style="fill:#FFFFFF;" d="M59.5,56.7L46.8,44l12.8-12.8c0.8-0.8,0.8-2,0-2.8c-0.8-0.8-2-0.8-2.8,0c0,0,0,0,0,0L44,41.2
	L31.2,28.4c0,0,0,0,0,0c-0.8-0.8-2.1-0.8-2.8,0c-0.8,0.8-0.8,2.1,0,2.8L41.2,44L28.5,56.7c0,0-0.1,0.1-0.1,0.1
	c-0.7,0.8-0.7,2.1,0.1,2.8c0.8,0.7,2.1,0.7,2.8-0.1L44,46.8l12.7,12.7c0.7,0.8,2,0.9,2.8,0.1c0.8-0.7,0.9-2,0.1-2.8
	C59.6,56.8,59.6,56.7,59.5,56.7z"/>
</svg>
