<?xml version="1.0" encoding="utf-8"?>
<!-- Generator: Adobe Illustrator 21.1.0, SVG Export Plug-In . SVG Version: 6.00 Build 0)  -->
<svg version="1.1" id="Layer_1" xmlns="http://www.w3.org/2000/svg" xmlns:xlink="http://www.w3.org/1999/xlink" x="0px" y="0px"
	 viewBox="0 0 308.8 298.5" style="enable-background:new 0 0 308.8 298.5;" xml:space="preserve">
<style type="text/css">
	.st0{fill:none;}
	.st1{fill:#FFFFFF;}
</style>
<g>
	<path class="st0" d="M2,149c0,82.4,68.4,149.5,153.2,149.5S308.8,231.4,308.8,149S239.8,0,155.1,0S2,66.6,2,149z"/>
	<g>
		<path class="st1" d="M193.1,25.1v18.6v0c1.1,0.1,2.2,0.2,3.3,0.3c0.1,0,0.2,0,0.4,0c8.1,1,15.9,2.9,23.4,5.6l0.1-0.1
			c15.9,5.8,30.1,15.3,41.4,27.4l0,0c17.7,18.9,28.5,44.3,28.5,72.2c0,27.9-10.8,53.3-28.5,72.2l0,0c-17.5,18.7-41.6,31.1-68.5,33.4
			v18.6c60.4-4.4,109-51.8,115-111.6c0,0,0,0,0,0c0.1-0.9,0.2-1.9,0.3-2.9c0-0.1,0-0.2,0-0.3c0.1-0.9,0.1-1.8,0.2-2.7
			c0-0.2,0-0.3,0-0.5c0-0.9,0.1-1.7,0.1-2.6c0-0.2,0-0.4,0-0.6c0-1,0-2.1,0-3.1c0,0,0,0,0,0s0,0,0,0c0-1,0-2.1,0-3.1
			c0-0.2,0-0.4,0-0.6c0-0.9-0.1-1.7-0.1-2.6c0-0.2,0-0.3,0-0.5c0-0.9-0.1-1.8-0.2-2.7c0-0.1,0-0.2,0-0.3c-0.1-1-0.2-1.9-0.3-2.9
			c0,0,0,0,0,0c-5.8-58.1-51.9-104.5-109.8-111.1c-0.1,0-0.2,0-0.3,0C196.4,25.3,194.8,25.2,193.1,25.1z"/>
		<path class="st1" d="M193.1,58.1L193.1,58.1v18.7v0c1.9,0.2,3.7,0.6,5.5,0.9l0,0c17.1,3.5,32,12.9,42.5,26l0,0.1
			c6.9,8.6,11.9,18.7,14.3,29.7c0,0.1,0,0.2,0.1,0.3c0.2,0.9,0.4,1.8,0.5,2.7c0,0.2,0.1,0.5,0.1,0.7c0.1,0.8,0.3,1.6,0.4,2.3
			c0.1,0.4,0.1,0.8,0.1,1.2c0.1,0.7,0.2,1.3,0.2,2c0.1,0.6,0.1,1.2,0.1,1.7c0,0.5,0.1,1,0.1,1.5c0,1.1,0.1,2.1,0.1,3.2
			c0,0,0,0.1,0,0.1s0,0.1,0,0.1c0,1.1,0,2.1-0.1,3.2c0,0.5-0.1,1-0.1,1.5c0,0.6-0.1,1.2-0.1,1.7c-0.1,0.7-0.1,1.3-0.2,2
			c0,0.4-0.1,0.8-0.1,1.2c-0.1,0.8-0.2,1.6-0.4,2.3c0,0.2-0.1,0.5-0.1,0.7c-0.2,0.9-0.3,1.8-0.5,2.7c0,0.1,0,0.2-0.1,0.3
			c-2.5,11.1-7.5,21.2-14.3,29.7l0,0.1c-11.6,14.5-28.7,24.5-48,26.9v18.7c42-4.1,75.8-36.8,81.7-78.3c0-0.2,0-0.4,0.1-0.6
			c0.2-1.2,0.3-2.4,0.4-3.6c0-0.5,0.1-1,0.1-1.6c0.1-0.9,0.1-1.8,0.2-2.7c0.1-1.3,0.1-2.6,0.1-3.9c0-0.2,0-0.3,0-0.5c0,0,0,0,0,0
			s0,0,0,0c0-0.2,0-0.3,0-0.5c0-1.3,0-2.6-0.1-3.9c0-0.9-0.1-1.8-0.2-2.7c0-0.5-0.1-1-0.1-1.6c-0.1-1.2-0.3-2.4-0.4-3.6
			c0-0.2,0-0.4-0.1-0.6c-5.5-39.2-36-70.5-74.8-77.3c-0.2,0-0.3-0.1-0.5-0.1c-1.1-0.2-2.1-0.3-3.2-0.5c-0.8-0.1-1.6-0.2-2.4-0.3
			C193.7,58.2,193.4,58.1,193.1,58.1z"/>
		<path class="st1" d="M193.1,92.4v18.9c11.5,2.7,21,10.5,26.1,20.9l-0.1,0.1c2.2,4.5,3.6,9.4,3.9,14.6c0,0.1,0,0.1,0,0.2
			c0,0.7,0.1,1.4,0.1,2.2c0,0.7,0,1.5-0.1,2.2c0,0.1,0,0.1,0,0.2c-0.3,5.2-1.8,10.1-3.9,14.6l0.1,0.1c-5.1,10.4-14.6,18.2-26.1,20.9
			v18.9c23.8-3.8,42.7-22,47.5-45.5c0-0.1,0-0.2,0.1-0.3c0.1-0.5,0.2-1.1,0.3-1.6c0-0.3,0.1-0.6,0.1-0.9c0.1-0.5,0.1-0.9,0.2-1.4
			c0-0.4,0.1-0.8,0.1-1.2c0-0.4,0.1-0.8,0.1-1.2c0-0.5,0.1-1,0.1-1.5c0-0.3,0-0.6,0.1-1c0-0.8,0.1-1.6,0.1-2.4c0,0,0,0,0,0
			c0,0,0,0,0,0s0,0,0,0c0,0,0,0,0,0c0-0.8,0-1.6-0.1-2.4c0-0.3,0-0.6-0.1-1c0-0.5-0.1-1-0.1-1.5c0-0.4-0.1-0.8-0.1-1.2
			c0-0.4-0.1-0.8-0.1-1.2c-0.1-0.5-0.1-0.9-0.2-1.4c0-0.3-0.1-0.6-0.1-0.9c-0.1-0.5-0.2-1.1-0.3-1.6c0-0.1,0-0.2-0.1-0.3
			C235.9,114.4,216.9,96.1,193.1,92.4z"/>
		<rect x="2" y="117.2" class="st1" width="18.6" height="64"/>
	</g>
</g>
<path class="st1" d="M172.3,0C121.1,0,89,62.9,78.2,88.1c0,0.1-0.1,0.2-0.1,0.2c-0.2,0.6-0.5,1.1-0.7,1.7c-0.1,0.2-0.1,0.3-0.2,0.5
	c-0.2,0.4-0.3,0.8-0.5,1.1c0,0.1-0.1,0.2-0.1,0.4H32.9v0v114.5v0h43.6c0,0.1,0.1,0.2,0.1,0.4c0.1,0.4,0.3,0.7,0.5,1.1
	c0.1,0.2,0.1,0.3,0.2,0.5c0.2,0.5,0.5,1.1,0.7,1.7c0,0.1,0.1,0.2,0.1,0.2c7.7,17.9,26.2,55.1,54.8,74.9c0,0,0.1,0.1,0.1,0.1
	c0.5,0.3,1,0.7,1.5,1c0.1,0.1,0.2,0.2,0.4,0.2c0.5,0.3,0.9,0.6,1.4,0.9c0.2,0.1,0.3,0.2,0.5,0.3c0.5,0.3,0.9,0.6,1.4,0.8
	c0.2,0.1,0.3,0.2,0.5,0.3c0.5,0.3,0.9,0.5,1.4,0.8c0.1,0.1,0.2,0.1,0.3,0.2c1,0.5,1.9,1,2.9,1.5c0.2,0.1,0.3,0.2,0.5,0.3
	c0.4,0.2,0.8,0.4,1.1,0.5c0.3,0.1,0.6,0.3,0.9,0.4c0.4,0.2,0.7,0.3,1.1,0.5c0.3,0.1,0.7,0.3,1,0.4c0.3,0.1,0.7,0.3,1,0.4
	c0.4,0.1,0.7,0.3,1.1,0.4c0.3,0.1,0.7,0.2,1,0.4c0.4,0.1,0.8,0.3,1.2,0.4c0.3,0.1,0.6,0.2,0.9,0.3c0.5,0.2,1,0.3,1.4,0.4
	c0.2,0.1,0.5,0.1,0.7,0.2c0.7,0.2,1.4,0.4,2.2,0.6c0.2,0,0.4,0.1,0.6,0.1c0.5,0.1,1.1,0.2,1.6,0.4c0.3,0.1,0.5,0.1,0.8,0.2
	c0.5,0.1,1,0.2,1.4,0.3c0.3,0,0.6,0.1,0.9,0.1c0.5,0.1,0.9,0.1,1.4,0.2c0.3,0,0.6,0.1,0.9,0.1c0.5,0.1,1,0.1,1.4,0.1
	c0.3,0,0.6,0.1,0.9,0.1c0.5,0,1.1,0.1,1.6,0.1c0.3,0,0.5,0,0.8,0c0.8,0,1.6,0,2.4,0h9.3V181.1v-63.8V0H172.3z M163,93.2v112.1v73.6
	c-0.9-0.2-1.8-0.4-2.6-0.7c0,0,0,0-0.1,0c-13.2-3.7-24.8-13.2-34.5-24.5l0,0c-12.7-14.8-22.2-32.7-27.9-45l0,0
	c-2.7-5.8-4.5-10.3-5.4-12.7c-0.4-1.2-0.7-1.8-0.7-1.9l-2.2-6.2h0l0,0h-38v-77.4h38l0,0h0l2.2-6.2c0-0.1,0.3-0.7,0.7-1.9
	c0.9-2.4,2.8-6.9,5.4-12.7l0,0c10.3-22.4,33.2-63.3,65.2-70.2V93.2z"/>
</svg>
