<?xml version="1.0" encoding="utf-8"?>
<!-- Generator: Adobe Illustrator 21.1.0, SVG Export Plug-In . SVG Version: 6.00 Build 0)  -->
<svg version="1.1" id="Layer_1" xmlns="http://www.w3.org/2000/svg" xmlns:xlink="http://www.w3.org/1999/xlink" x="0px" y="0px"
	 viewBox="0 0 306.8 342.8" style="enable-background:new 0 0 306.8 342.8;" xml:space="preserve">
<style type="text/css">
	.st0{fill:none;}
	.st1{fill:#FFFFFF;}
</style>
<g>
	<rect y="136" class="st0" width="18.6" height="64"/>
	<path class="st0" d="M209,80.5c-5.7-1.8-11.7-3-17.8-3.6v18.7c1.9,0.2,3.7,0.6,5.5,0.9L209,80.5z"/>
	<path class="st0" d="M83.2,244l12.7-16.5c-3.9-8.5-6.1-14.4-6.2-14.6l-2.2-6.2h-38v-77.4h38l2.2-6.2c0.3-0.8,27.2-75.3,71.3-84.8
		v104.5l18.6-24.1V18.8h-9.3c-54.1,0-86.9,70.2-95.7,92H31v114.5h43.6C76.4,229.8,79.3,236.4,83.2,244z"/>
	<path class="st0" d="M230,53.2c-12.1-5.1-25.1-8.4-38.8-9.4v18.6c9.4,0.8,18.5,2.9,27.1,6L230,53.2z"/>
	
		<rect x="-38.8" y="162.1" transform="matrix(0.6099 -0.7925 0.7925 0.6099 -69.3745 201.8323)" class="st0" width="418.2" height="18.6"/>
	<path class="st0" d="M191.2,259.2c46.3-4.5,82.6-43.7,82.6-91.1c0-23.2-8.7-44.4-23-60.6l-11.6,15.1c10,12.5,16,28.3,16,45.5
		c0,37.2-28,67.9-64,72.4V259.2z"/>
	<path class="st0" d="M161,297.7c-14.3-3.1-26.9-13.1-37.3-25.2l-11.5,14.9c15.2,16.7,34.6,29.9,58,29.9h9.3V199.9L161,224.1V297.7z
		"/>
	<path class="st0" d="M259.7,95.8c17.7,18.9,28.5,44.3,28.5,72.2c0,55.4-42.8,101-97,105.6v18.6c64.5-4.7,115.6-58.5,115.6-124.2
		c0-33.9-13.7-64.5-35.7-87L259.7,95.8z"/>
	<path class="st0" d="M191.2,206v18.9c27.5-4.3,48.6-28.1,48.6-56.8c0-12.2-3.9-23.5-10.4-32.8l-12.2,15.9c2.5,5.1,4,10.8,4,16.9
		C221.2,186.5,208.4,201.9,191.2,206z"/>
	<g>
		<path class="st0" d="M-145,166.2c0,177,143,321,320,321s321-144,321-321s-144-320-321-320S-145-10.8-145,166.2z"/>
		<rect y="136" class="st1" width="18.6" height="64"/>
		<path class="st1" d="M191.2,76.9v18.7c1.9,0.2,3.7,0.6,5.5,0.9L209,80.5C203.3,78.7,197.3,77.5,191.2,76.9z"/>
		<path class="st1" d="M230,53.2c-12.1-5.1-25.1-8.4-38.8-9.4v18.6c9.4,0.8,18.5,2.9,27.1,6L230,53.2z"/>
		<path class="st1" d="M31,225.3h43.6c1.8,4.5,4.7,11.1,8.6,18.7l12.7-16.5c-3.9-8.5-6.1-14.4-6.2-14.6l-2.2-6.2h-38v-77.4h38
			l2.2-6.2c0.3-0.8,27.2-75.3,71.3-84.8v104.5l18.6-24.1V18.8h-9.3c-54.1,0-86.9,70.2-95.7,92H31V225.3z"/>
		
			<rect x="-38.8" y="162.1" transform="matrix(0.6101 -0.7923 0.7923 0.6101 -69.3846 201.7525)" class="st1" width="418.2" height="18.6"/>
		<path class="st1" d="M112.3,287.4c15.2,16.7,34.6,29.9,58,29.9h9.3V199.9L161,224.1v73.6c-14.3-3.1-26.9-13.1-37.3-25.2
			L112.3,287.4z"/>
		<path class="st1" d="M191.2,292.2c64.5-4.7,115.6-58.5,115.6-124.2c0-33.9-13.7-64.5-35.7-87l-11.4,14.8
			c17.7,18.9,28.5,44.3,28.5,72.2c0,55.4-42.8,101-97,105.6V292.2z"/>
		<path class="st1" d="M250.7,107.5l-11.6,15.1c10,12.5,16,28.3,16,45.5c0,37.2-28,67.9-64,72.4v18.7c46.3-4.5,82.6-43.7,82.6-91.1
			C273.8,144.8,265,123.6,250.7,107.5z"/>
		<path class="st1" d="M229.4,135.2l-12.2,15.9c2.5,5.1,4,10.8,4,16.9c0,18.4-12.8,33.9-30,38v18.9c27.5-4.3,48.6-28.1,48.6-56.8
			C239.8,155.8,235.9,144.5,229.4,135.2z"/>
	</g>
</g>
</svg>
